<svg width="74" height="16" viewBox="0 0 74 16" fill="none" xmlns="http://www.w3.org/2000/svg">
<path d="M2.60344 0.625L6.32219 9.90625L10.0409 0.625H11.9863V12H10.4863V7.57031L10.6269 2.78906L6.8925 12H5.74406L2.0175 2.8125L2.16594 7.57031V12H0.665939V0.625H2.60344ZM20.1069 12C20.0235 11.8333 19.9558 11.5365 19.9038 11.1094C19.2319 11.8073 18.4298 12.1562 17.4975 12.1562C16.6642 12.1562 15.9793 11.9219 15.4428 11.4531C14.9116 10.9792 14.6459 10.3802 14.6459 9.65625C14.6459 8.77604 14.9793 8.09375 15.6459 7.60938C16.3178 7.11979 17.2605 6.875 18.4741 6.875H19.8803V6.21094C19.8803 5.70573 19.7293 5.30469 19.4272 5.00781C19.1251 4.70573 18.6798 4.55469 18.0913 4.55469C17.5756 4.55469 17.1433 4.6849 16.7944 4.94531C16.4454 5.20573 16.2709 5.52083 16.2709 5.89062H14.8178C14.8178 5.46875 14.9663 5.0625 15.2631 4.67188C15.5652 4.27604 15.9715 3.96354 16.4819 3.73438C16.9975 3.50521 17.5626 3.39062 18.1772 3.39062C19.1511 3.39062 19.9142 3.63542 20.4663 4.125C21.0183 4.60938 21.3048 5.27865 21.3256 6.13281V10.0234C21.3256 10.7995 21.4246 11.4167 21.6225 11.875V12H20.1069ZM17.7084 10.8984C18.1616 10.8984 18.5913 10.7812 18.9975 10.5469C19.4038 10.3125 19.698 10.0078 19.8803 9.63281V7.89844H18.7475C16.9767 7.89844 16.0913 8.41667 16.0913 9.45312C16.0913 9.90625 16.2423 10.2604 16.5444 10.5156C16.8465 10.7708 17.2345 10.8984 17.7084 10.8984ZM28.1572 4.84375C27.9384 4.80729 27.7015 4.78906 27.4463 4.78906C26.4983 4.78906 25.8551 5.19271 25.5166 6V12H24.0713V3.54688H25.4775L25.5009 4.52344C25.9749 3.76823 26.6468 3.39062 27.5166 3.39062C27.7978 3.39062 28.0114 3.42708 28.1572 3.5V4.84375ZM32.3325 8.08594L31.4263 9.03125V12H29.9809V0H31.4263V7.25781L32.1997 6.32812L34.8325 3.54688H36.5903L33.3013 7.07812L36.9731 12H35.2778L32.3325 8.08594ZM41.9141 12.1562C40.7682 12.1562 39.8359 11.7812 39.1172 11.0312C38.3984 10.276 38.0391 9.26823 38.0391 8.00781V7.74219C38.0391 6.90365 38.1979 6.15625 38.5156 5.5C38.8385 4.83854 39.2865 4.32292 39.8594 3.95312C40.4375 3.57812 41.0625 3.39062 41.7344 3.39062C42.8333 3.39062 43.6875 3.7526 44.2969 4.47656C44.9062 5.20052 45.2109 6.23698 45.2109 7.58594V8.1875H39.4844C39.5052 9.02083 39.7474 9.69531 40.2109 10.2109C40.6797 10.7214 41.2734 10.9766 41.9922 10.9766C42.5026 10.9766 42.9349 10.8724 43.2891 10.6641C43.6432 10.4557 43.9531 10.1797 44.2188 9.83594L45.1016 10.5234C44.3932 11.612 43.3307 12.1562 41.9141 12.1562ZM41.7344 4.57812C41.151 4.57812 40.6615 4.79167 40.2656 5.21875C39.8698 5.64062 39.625 6.23438 39.5312 7H43.7656V6.89062C43.724 6.15625 43.526 5.58854 43.1719 5.1875C42.8177 4.78125 42.3385 4.57812 41.7344 4.57812ZM49.3316 1.5V3.54688H50.9097V4.66406H49.3316V9.90625C49.3316 10.2448 49.4019 10.5 49.5425 10.6719C49.6831 10.8385 49.9227 10.9219 50.2613 10.9219C50.4279 10.9219 50.6571 10.8906 50.9488 10.8281V12C50.5685 12.1042 50.1988 12.1562 49.8394 12.1562C49.1935 12.1562 48.7066 11.9609 48.3784 11.5703C48.0503 11.1797 47.8863 10.625 47.8863 9.90625V4.66406H46.3472V3.54688H47.8863V1.5H49.3316ZM54.6553 12H53.21V3.54688H54.6553V12ZM53.0928 1.30469C53.0928 1.07031 53.1631 0.872396 53.3038 0.710938C53.4496 0.549479 53.6631 0.46875 53.9444 0.46875C54.2256 0.46875 54.4392 0.549479 54.585 0.710938C54.7308 0.872396 54.8038 1.07031 54.8038 1.30469C54.8038 1.53906 54.7308 1.73438 54.585 1.89062C54.4392 2.04688 54.2256 2.125 53.9444 2.125C53.6631 2.125 53.4496 2.04688 53.3038 1.89062C53.1631 1.73438 53.0928 1.53906 53.0928 1.30469ZM58.8228 3.54688L58.8697 4.60938C59.5155 3.79688 60.3593 3.39062 61.4009 3.39062C63.1874 3.39062 64.0884 4.39844 64.1041 6.41406V12H62.6588V6.40625C62.6535 5.79688 62.5129 5.34635 62.2369 5.05469C61.966 4.76302 61.5416 4.61719 60.9634 4.61719C60.4947 4.61719 60.0832 4.74219 59.7291 4.99219C59.3749 5.24219 59.0989 5.57031 58.9009 5.97656V12H57.4556V3.54688H58.8228ZM66.42 7.70312C66.42 6.38542 66.7247 5.33854 67.3341 4.5625C67.9434 3.78125 68.7507 3.39062 69.7559 3.39062C70.7872 3.39062 71.5919 3.75521 72.17 4.48438L72.2403 3.54688H73.5606V11.7969C73.5606 12.8906 73.2351 13.7526 72.5841 14.3828C71.9382 15.013 71.0684 15.3281 69.9747 15.3281C69.3653 15.3281 68.769 15.1979 68.1856 14.9375C67.6023 14.6771 67.157 14.3203 66.8497 13.8672L67.5997 13C68.2195 13.7656 68.9773 14.1484 69.8731 14.1484C70.5762 14.1484 71.1231 13.9505 71.5137 13.5547C71.9096 13.1589 72.1075 12.6016 72.1075 11.8828V11.1562C71.5294 11.8229 70.7403 12.1562 69.7403 12.1562C68.7507 12.1562 67.9486 11.7578 67.3341 10.9609C66.7247 10.1641 66.42 9.07812 66.42 7.70312ZM67.8731 7.86719C67.8731 8.82031 68.0684 9.57031 68.4591 10.1172C68.8497 10.6589 69.3966 10.9297 70.0997 10.9297C71.0111 10.9297 71.6804 10.5156 72.1075 9.6875V5.82812C71.6648 5.02083 71.0007 4.61719 70.1153 4.61719C69.4122 4.61719 68.8627 4.89062 68.4669 5.4375C68.071 5.98438 67.8731 6.79427 67.8731 7.86719Z" fill="#757575"/>
</svg>
