<svg width="129" height="16" viewBox="0 0 129 16" fill="none" xmlns="http://www.w3.org/2000/svg">
<path d="M1.8375 7.54688V12H0.337502V0.625H4.53281C5.77761 0.625 6.75156 0.942708 7.45469 1.57812C8.16302 2.21354 8.51719 3.05469 8.51719 4.10156C8.51719 5.20573 8.17083 6.05729 7.47813 6.65625C6.79063 7.25 5.80365 7.54688 4.51719 7.54688H1.8375ZM1.8375 6.32031H4.53281C5.3349 6.32031 5.94948 6.13281 6.37656 5.75781C6.80365 5.3776 7.01719 4.83073 7.01719 4.11719C7.01719 3.4401 6.80365 2.89844 6.37656 2.49219C5.94948 2.08594 5.36354 1.875 4.61875 1.85938H1.8375V6.32031ZM14.7706 4.84375C14.5519 4.80729 14.3149 4.78906 14.0597 4.78906C13.1118 4.78906 12.4685 5.19271 12.13 6V12H10.6847V3.54688H12.0909L12.1144 4.52344C12.5883 3.76823 13.2602 3.39062 14.13 3.39062C14.4113 3.39062 14.6248 3.42708 14.7706 3.5V4.84375ZM16.0475 7.69531C16.0475 6.86719 16.209 6.1224 16.5319 5.46094C16.86 4.79948 17.3131 4.28906 17.8913 3.92969C18.4746 3.57031 19.1386 3.39062 19.8834 3.39062C21.0345 3.39062 21.9642 3.78906 22.6725 4.58594C23.386 5.38281 23.7428 6.44271 23.7428 7.76562V7.86719C23.7428 8.6901 23.584 9.42969 23.2663 10.0859C22.9538 10.737 22.5032 11.2448 21.9147 11.6094C21.3314 11.974 20.6595 12.1562 19.8991 12.1562C18.7532 12.1562 17.8235 11.7578 17.11 10.9609C16.4017 10.1641 16.0475 9.10938 16.0475 7.79688V7.69531ZM17.5006 7.86719C17.5006 8.80469 17.7168 9.55729 18.1491 10.125C18.5866 10.6927 19.1699 10.9766 19.8991 10.9766C20.6334 10.9766 21.2168 10.6901 21.6491 10.1172C22.0814 9.53906 22.2975 8.73177 22.2975 7.69531C22.2975 6.76823 22.0761 6.01823 21.6334 5.44531C21.1959 4.86719 20.6126 4.57812 19.8834 4.57812C19.1699 4.57812 18.5944 4.86198 18.1569 5.42969C17.7194 5.9974 17.5006 6.8099 17.5006 7.86719ZM25.6838 7.70312C25.6838 6.40625 25.991 5.36458 26.6056 4.57812C27.2202 3.78646 28.0249 3.39062 29.0197 3.39062C30.0093 3.39062 30.7931 3.72917 31.3713 4.40625V0H32.8166V12H31.4884L31.4181 11.0938C30.84 11.8021 30.0353 12.1562 29.0041 12.1562C28.0249 12.1562 27.2254 11.7552 26.6056 10.9531C25.991 10.151 25.6838 9.10417 25.6838 7.8125V7.70312ZM27.1291 7.86719C27.1291 8.82552 27.327 9.57552 27.7228 10.1172C28.1186 10.6589 28.6655 10.9297 29.3634 10.9297C30.2801 10.9297 30.9494 10.5182 31.3713 9.69531V5.8125C30.939 5.01562 30.2749 4.61719 29.3791 4.61719C28.6707 4.61719 28.1186 4.89062 27.7228 5.4375C27.327 5.98438 27.1291 6.79427 27.1291 7.86719ZM40.7653 11.1641C40.2028 11.8255 39.3773 12.1562 38.2887 12.1562C37.3877 12.1562 36.7002 11.8958 36.2262 11.375C35.7575 10.849 35.5205 10.0729 35.5153 9.04688V3.54688H36.9606V9.00781C36.9606 10.2891 37.4815 10.9297 38.5231 10.9297C39.6273 10.9297 40.3617 10.5182 40.7262 9.69531V3.54688H42.1716V12H40.7966L40.7653 11.1641ZM48.2453 10.9766C48.7609 10.9766 49.2115 10.8203 49.5969 10.5078C49.9823 10.1953 50.1958 9.80469 50.2375 9.33594H51.6047C51.5786 9.82031 51.412 10.2812 51.1047 10.7188C50.7974 11.1562 50.3859 11.5052 49.8703 11.7656C49.3599 12.026 48.8182 12.1562 48.2453 12.1562C47.0943 12.1562 46.1776 11.7734 45.4953 11.0078C44.8182 10.237 44.4797 9.1849 44.4797 7.85156V7.60938C44.4797 6.78646 44.6307 6.05469 44.9328 5.41406C45.2349 4.77344 45.6672 4.27604 46.2297 3.92188C46.7974 3.56771 47.4667 3.39062 48.2375 3.39062C49.1854 3.39062 49.9719 3.67448 50.5969 4.24219C51.2271 4.8099 51.563 5.54688 51.6047 6.45312H50.2375C50.1958 5.90625 49.9875 5.45833 49.6125 5.10938C49.2427 4.75521 48.7844 4.57812 48.2375 4.57812C47.5031 4.57812 46.9328 4.84375 46.5266 5.375C46.1255 5.90104 45.925 6.66406 45.925 7.66406V7.9375C45.925 8.91146 46.1255 9.66146 46.5266 10.1875C46.9276 10.7135 47.5005 10.9766 48.2453 10.9766ZM55.6706 1.5V3.54688H57.2488V4.66406H55.6706V9.90625C55.6706 10.2448 55.7409 10.5 55.8816 10.6719C56.0222 10.8385 56.2618 10.9219 56.6003 10.9219C56.767 10.9219 56.9961 10.8906 57.2878 10.8281V12C56.9076 12.1042 56.5378 12.1562 56.1784 12.1562C55.5326 12.1562 55.0456 11.9609 54.7175 11.5703C54.3894 11.1797 54.2253 10.625 54.2253 9.90625V4.66406H52.6863V3.54688H54.2253V1.5H55.6706ZM64.0994 12V0.625H67.3103C68.2999 0.625 69.1749 0.84375 69.9353 1.28125C70.6957 1.71875 71.2817 2.34115 71.6931 3.14844C72.1098 3.95573 72.3207 4.88281 72.3259 5.92969V6.65625C72.3259 7.72917 72.1176 8.66927 71.7009 9.47656C71.2895 10.2839 70.6983 10.9036 69.9275 11.3359C69.1619 11.7682 68.2686 11.9896 67.2478 12H64.0994ZM65.5994 1.85938V10.7734H67.1775C68.3338 10.7734 69.2322 10.4141 69.8728 9.69531C70.5186 8.97656 70.8416 7.95312 70.8416 6.625V5.96094C70.8416 4.66927 70.5369 3.66667 69.9275 2.95312C69.3233 2.23438 68.464 1.86979 67.3494 1.85938H65.5994ZM78.3606 12.1562C77.2148 12.1562 76.2825 11.7812 75.5638 11.0312C74.845 10.276 74.4856 9.26823 74.4856 8.00781V7.74219C74.4856 6.90365 74.6445 6.15625 74.9622 5.5C75.2851 4.83854 75.733 4.32292 76.3059 3.95312C76.8841 3.57812 77.5091 3.39062 78.1809 3.39062C79.2799 3.39062 80.1341 3.7526 80.7434 4.47656C81.3528 5.20052 81.6575 6.23698 81.6575 7.58594V8.1875H75.9309C75.9518 9.02083 76.194 9.69531 76.6575 10.2109C77.1263 10.7214 77.72 10.9766 78.4388 10.9766C78.9492 10.9766 79.3815 10.8724 79.7356 10.6641C80.0898 10.4557 80.3997 10.1797 80.6653 9.83594L81.5481 10.5234C80.8398 11.612 79.7773 12.1562 78.3606 12.1562ZM78.1809 4.57812C77.5976 4.57812 77.108 4.79167 76.7122 5.21875C76.3164 5.64062 76.0716 6.23438 75.9778 7H80.2122V6.89062C80.1705 6.15625 79.9726 5.58854 79.6184 5.1875C79.2643 4.78125 78.7851 4.57812 78.1809 4.57812ZM88.7391 9.75781C88.7391 9.36719 88.5906 9.0651 88.2938 8.85156C88.0021 8.63281 87.4891 8.44531 86.7547 8.28906C86.0255 8.13281 85.4448 7.94531 85.0125 7.72656C84.5854 7.50781 84.2677 7.2474 84.0594 6.94531C83.8563 6.64323 83.7547 6.28385 83.7547 5.86719C83.7547 5.17448 84.0464 4.58854 84.6297 4.10938C85.2182 3.63021 85.9682 3.39062 86.8797 3.39062C87.838 3.39062 88.6141 3.63802 89.2078 4.13281C89.8068 4.6276 90.1063 5.26042 90.1063 6.03125H88.6531C88.6531 5.63542 88.4839 5.29427 88.1453 5.00781C87.812 4.72135 87.3901 4.57812 86.8797 4.57812C86.3537 4.57812 85.9422 4.69271 85.6453 4.92188C85.3484 5.15104 85.2 5.45052 85.2 5.82031C85.2 6.16927 85.338 6.43229 85.6141 6.60938C85.8901 6.78646 86.3875 6.95573 87.1063 7.11719C87.8302 7.27865 88.4162 7.47135 88.8641 7.69531C89.312 7.91927 89.6427 8.1901 89.8563 8.50781C90.075 8.82031 90.1844 9.20312 90.1844 9.65625C90.1844 10.4115 89.8823 11.0182 89.2781 11.4766C88.674 11.9297 87.8901 12.1562 86.9266 12.1562C86.2495 12.1562 85.6505 12.0365 85.1297 11.7969C84.6089 11.5573 84.2 11.224 83.9031 10.7969C83.6115 10.3646 83.4656 9.89844 83.4656 9.39844H84.9109C84.937 9.88281 85.1297 10.2682 85.4891 10.5547C85.8537 10.8359 86.3328 10.9766 86.9266 10.9766C87.4734 10.9766 87.9109 10.8672 88.2391 10.6484C88.5724 10.4245 88.7391 10.1276 88.7391 9.75781ZM94.1175 12H92.6722V3.54688H94.1175V12ZM92.555 1.30469C92.555 1.07031 92.6253 0.872396 92.7659 0.710938C92.9118 0.549479 93.1253 0.46875 93.4066 0.46875C93.6878 0.46875 93.9014 0.549479 94.0472 0.710938C94.193 0.872396 94.2659 1.07031 94.2659 1.30469C94.2659 1.53906 94.193 1.73438 94.0472 1.89062C93.9014 2.04688 93.6878 2.125 93.4066 2.125C93.1253 2.125 92.9118 2.04688 92.7659 1.89062C92.6253 1.73438 92.555 1.53906 92.555 1.30469ZM96.5741 7.70312C96.5741 6.38542 96.8788 5.33854 97.4881 4.5625C98.0975 3.78125 98.9048 3.39062 99.91 3.39062C100.941 3.39062 101.746 3.75521 102.324 4.48438L102.394 3.54688H103.715V11.7969C103.715 12.8906 103.389 13.7526 102.738 14.3828C102.092 15.013 101.223 15.3281 100.129 15.3281C99.5194 15.3281 98.923 15.1979 98.3397 14.9375C97.7564 14.6771 97.311 14.3203 97.0038 13.8672L97.7538 13C98.3735 13.7656 99.1314 14.1484 100.027 14.1484C100.73 14.1484 101.277 13.9505 101.668 13.5547C102.064 13.1589 102.262 12.6016 102.262 11.8828V11.1562C101.683 11.8229 100.894 12.1562 99.8944 12.1562C98.9048 12.1562 98.1027 11.7578 97.4881 10.9609C96.8788 10.1641 96.5741 9.07812 96.5741 7.70312ZM98.0272 7.86719C98.0272 8.82031 98.2225 9.57031 98.6131 10.1172C99.0038 10.6589 99.5506 10.9297 100.254 10.9297C101.165 10.9297 101.834 10.5156 102.262 9.6875V5.82812C101.819 5.02083 101.155 4.61719 100.269 4.61719C99.5663 4.61719 99.0168 4.89062 98.6209 5.4375C98.2251 5.98438 98.0272 6.79427 98.0272 7.86719ZM107.749 3.54688L107.796 4.60938C108.442 3.79688 109.286 3.39062 110.327 3.39062C112.114 3.39062 113.015 4.39844 113.031 6.41406V12H111.585V6.40625C111.58 5.79688 111.439 5.34635 111.163 5.05469C110.893 4.76302 110.468 4.61719 109.89 4.61719C109.421 4.61719 109.01 4.74219 108.656 4.99219C108.301 5.24219 108.025 5.57031 107.827 5.97656V12H106.382V3.54688H107.749ZM119.198 12.1562C118.052 12.1562 117.12 11.7812 116.401 11.0312C115.683 10.276 115.323 9.26823 115.323 8.00781V7.74219C115.323 6.90365 115.482 6.15625 115.8 5.5C116.123 4.83854 116.571 4.32292 117.143 3.95312C117.722 3.57812 118.347 3.39062 119.018 3.39062C120.117 3.39062 120.972 3.7526 121.581 4.47656C122.19 5.20052 122.495 6.23698 122.495 7.58594V8.1875H116.768C116.789 9.02083 117.031 9.69531 117.495 10.2109C117.964 10.7214 118.558 10.9766 119.276 10.9766C119.787 10.9766 120.219 10.8724 120.573 10.6641C120.927 10.4557 121.237 10.1797 121.503 9.83594L122.386 10.5234C121.677 11.612 120.615 12.1562 119.198 12.1562ZM119.018 4.57812C118.435 4.57812 117.946 4.79167 117.55 5.21875C117.154 5.64062 116.909 6.23438 116.815 7H121.05V6.89062C121.008 6.15625 120.81 5.58854 120.456 5.1875C120.102 4.78125 119.623 4.57812 119.018 4.57812ZM128.741 4.84375C128.522 4.80729 128.285 4.78906 128.03 4.78906C127.082 4.78906 126.439 5.19271 126.1 6V12H124.655V3.54688H126.061L126.084 4.52344C126.558 3.76823 127.23 3.39062 128.1 3.39062C128.381 3.39062 128.595 3.42708 128.741 3.5V4.84375Z" fill="#757575"/>
</svg>
