<svg width="86" height="16" viewBox="0 0 86 16" fill="none" xmlns="http://www.w3.org/2000/svg">
<path d="M8.65469 0.625V8.35938C8.64948 9.43229 8.31094 10.3099 7.63906 10.9922C6.97239 11.6745 6.06614 12.0573 4.92031 12.1406L4.52187 12.1562C3.27708 12.1562 2.28489 11.8203 1.54531 11.1484C0.805728 10.4766 0.430728 9.55208 0.420311 8.375V0.625H1.90469V8.32812C1.90469 9.15104 2.13125 9.79167 2.58437 10.25C3.0375 10.7031 3.68333 10.9297 4.52187 10.9297C5.37083 10.9297 6.01927 10.7031 6.46719 10.25C6.92031 9.79688 7.14687 9.15885 7.14687 8.33594V0.625H8.65469ZM13.1112 12H11.6112V0.625H13.1112V12ZM20.79 12V0.625H24.0009C24.9905 0.625 25.8655 0.84375 26.6259 1.28125C27.3864 1.71875 27.9723 2.34115 28.3837 3.14844C28.8004 3.95573 29.0114 4.88281 29.0166 5.92969V6.65625C29.0166 7.72917 28.8082 8.66927 28.3916 9.47656C27.9801 10.2839 27.389 10.9036 26.6181 11.3359C25.8525 11.7682 24.9593 11.9896 23.9384 12H20.79ZM22.29 1.85938V10.7734H23.8681C25.0244 10.7734 25.9228 10.4141 26.5634 9.69531C27.2093 8.97656 27.5322 7.95312 27.5322 6.625V5.96094C27.5322 4.66927 27.2275 3.66667 26.6181 2.95312C26.014 2.23438 25.1546 1.86979 24.04 1.85938H22.29ZM35.0512 12.1562C33.9054 12.1562 32.9731 11.7812 32.2544 11.0312C31.5356 10.276 31.1762 9.26823 31.1762 8.00781V7.74219C31.1762 6.90365 31.3351 6.15625 31.6528 5.5C31.9757 4.83854 32.4236 4.32292 32.9966 3.95312C33.5747 3.57812 34.1997 3.39062 34.8716 3.39062C35.9705 3.39062 36.8247 3.7526 37.4341 4.47656C38.0434 5.20052 38.3481 6.23698 38.3481 7.58594V8.1875H32.6216C32.6424 9.02083 32.8846 9.69531 33.3481 10.2109C33.8169 10.7214 34.4106 10.9766 35.1294 10.9766C35.6398 10.9766 36.0721 10.8724 36.4262 10.6641C36.7804 10.4557 37.0903 10.1797 37.3559 9.83594L38.2387 10.5234C37.5304 11.612 36.4679 12.1562 35.0512 12.1562ZM34.8716 4.57812C34.2882 4.57812 33.7986 4.79167 33.4028 5.21875C33.007 5.64062 32.7622 6.23438 32.6684 7H36.9028V6.89062C36.8611 6.15625 36.6632 5.58854 36.3091 5.1875C35.9549 4.78125 35.4757 4.57812 34.8716 4.57812ZM45.4297 9.75781C45.4297 9.36719 45.2812 9.0651 44.9844 8.85156C44.6927 8.63281 44.1797 8.44531 43.4453 8.28906C42.7161 8.13281 42.1354 7.94531 41.7031 7.72656C41.276 7.50781 40.9583 7.2474 40.75 6.94531C40.5469 6.64323 40.4453 6.28385 40.4453 5.86719C40.4453 5.17448 40.737 4.58854 41.3203 4.10938C41.9089 3.63021 42.6589 3.39062 43.5703 3.39062C44.5286 3.39062 45.3047 3.63802 45.8984 4.13281C46.4974 4.6276 46.7969 5.26042 46.7969 6.03125H45.3438C45.3438 5.63542 45.1745 5.29427 44.8359 5.00781C44.5026 4.72135 44.0807 4.57812 43.5703 4.57812C43.0443 4.57812 42.6328 4.69271 42.3359 4.92188C42.0391 5.15104 41.8906 5.45052 41.8906 5.82031C41.8906 6.16927 42.0286 6.43229 42.3047 6.60938C42.5807 6.78646 43.0781 6.95573 43.7969 7.11719C44.5208 7.27865 45.1068 7.47135 45.5547 7.69531C46.0026 7.91927 46.3333 8.1901 46.5469 8.50781C46.7656 8.82031 46.875 9.20312 46.875 9.65625C46.875 10.4115 46.5729 11.0182 45.9688 11.4766C45.3646 11.9297 44.5807 12.1562 43.6172 12.1562C42.9401 12.1562 42.3411 12.0365 41.8203 11.7969C41.2995 11.5573 40.8906 11.224 40.5938 10.7969C40.3021 10.3646 40.1562 9.89844 40.1562 9.39844H41.6016C41.6276 9.88281 41.8203 10.2682 42.1797 10.5547C42.5443 10.8359 43.0234 10.9766 43.6172 10.9766C44.1641 10.9766 44.6016 10.8672 44.9297 10.6484C45.263 10.4245 45.4297 10.1276 45.4297 9.75781ZM50.8081 12H49.3628V3.54688H50.8081V12ZM49.2456 1.30469C49.2456 1.07031 49.3159 0.872396 49.4566 0.710938C49.6024 0.549479 49.8159 0.46875 50.0972 0.46875C50.3784 0.46875 50.592 0.549479 50.7378 0.710938C50.8836 0.872396 50.9566 1.07031 50.9566 1.30469C50.9566 1.53906 50.8836 1.73438 50.7378 1.89062C50.592 2.04688 50.3784 2.125 50.0972 2.125C49.8159 2.125 49.6024 2.04688 49.4566 1.89062C49.3159 1.73438 49.2456 1.53906 49.2456 1.30469ZM53.2647 7.70312C53.2647 6.38542 53.5694 5.33854 54.1787 4.5625C54.7881 3.78125 55.5954 3.39062 56.6006 3.39062C57.6319 3.39062 58.4366 3.75521 59.0147 4.48438L59.085 3.54688H60.4053V11.7969C60.4053 12.8906 60.0798 13.7526 59.4287 14.3828C58.7829 15.013 57.9131 15.3281 56.8194 15.3281C56.21 15.3281 55.6136 15.1979 55.0303 14.9375C54.447 14.6771 54.0017 14.3203 53.6944 13.8672L54.4444 13C55.0642 13.7656 55.822 14.1484 56.7178 14.1484C57.4209 14.1484 57.9678 13.9505 58.3584 13.5547C58.7543 13.1589 58.9522 12.6016 58.9522 11.8828V11.1562C58.3741 11.8229 57.585 12.1562 56.585 12.1562C55.5954 12.1562 54.7933 11.7578 54.1787 10.9609C53.5694 10.1641 53.2647 9.07812 53.2647 7.70312ZM54.7178 7.86719C54.7178 8.82031 54.9131 9.57031 55.3037 10.1172C55.6944 10.6589 56.2412 10.9297 56.9444 10.9297C57.8558 10.9297 58.5251 10.5156 58.9522 9.6875V5.82812C58.5095 5.02083 57.8454 4.61719 56.96 4.61719C56.2569 4.61719 55.7074 4.89062 55.3116 5.4375C54.9157 5.98438 54.7178 6.79427 54.7178 7.86719ZM64.44 3.54688L64.4869 4.60938C65.1327 3.79688 65.9765 3.39062 67.0181 3.39062C68.8046 3.39062 69.7056 4.39844 69.7212 6.41406V12H68.2759V6.40625C68.2707 5.79688 68.1301 5.34635 67.8541 5.05469C67.5832 4.76302 67.1587 4.61719 66.5806 4.61719C66.1119 4.61719 65.7004 4.74219 65.3462 4.99219C64.9921 5.24219 64.716 5.57031 64.5181 5.97656V12H63.0728V3.54688H64.44ZM75.8887 12.1562C74.7429 12.1562 73.8106 11.7812 73.0919 11.0312C72.3731 10.276 72.0137 9.26823 72.0137 8.00781V7.74219C72.0137 6.90365 72.1726 6.15625 72.4903 5.5C72.8132 4.83854 73.2611 4.32292 73.8341 3.95312C74.4122 3.57812 75.0372 3.39062 75.7091 3.39062C76.808 3.39062 77.6622 3.7526 78.2716 4.47656C78.8809 5.20052 79.1856 6.23698 79.1856 7.58594V8.1875H73.4591C73.4799 9.02083 73.7221 9.69531 74.1856 10.2109C74.6544 10.7214 75.2481 10.9766 75.9669 10.9766C76.4773 10.9766 76.9096 10.8724 77.2637 10.6641C77.6179 10.4557 77.9278 10.1797 78.1934 9.83594L79.0762 10.5234C78.3679 11.612 77.3054 12.1562 75.8887 12.1562ZM75.7091 4.57812C75.1257 4.57812 74.6361 4.79167 74.2403 5.21875C73.8445 5.64062 73.5997 6.23438 73.5059 7H77.7403V6.89062C77.6986 6.15625 77.5007 5.58854 77.1466 5.1875C76.7924 4.78125 76.3132 4.57812 75.7091 4.57812ZM85.4313 4.84375C85.2125 4.80729 84.9755 4.78906 84.7203 4.78906C83.7724 4.78906 83.1292 5.19271 82.7906 6V12H81.3453V3.54688H82.7516L82.775 4.52344C83.249 3.76823 83.9208 3.39062 84.7906 3.39062C85.0719 3.39062 85.2854 3.42708 85.4313 3.5V4.84375Z" fill="#757575"/>
</svg>
